<?xml version="1.0" encoding="utf-8"?>
<!-- Generator: Adobe Illustrator 16.0.4, SVG Export Plug-In . SVG Version: 6.00 Build 0)  -->
<!DOCTYPE svg PUBLIC "-//W3C//DTD SVG 1.1//EN" "http://www.w3.org/Graphics/SVG/1.1/DTD/svg11.dtd">
<svg version="1.1" id="Livello_1" xmlns="http://www.w3.org/2000/svg" xmlns:xlink="http://www.w3.org/1999/xlink" x="0px" y="0px"
	 width="818.404px" height="163.013px" viewBox="0 0 818.404 163.013" enable-background="new 0 0 818.404 163.013"
	 xml:space="preserve">
<g>
	<path fill="#333333" d="M217.742,85.127h-28.337c0,0-1.371,0.124-0.872,1.495l19.471,62.286c0,0,0.25,1.246,1.246,1.246h8.113
		c0,0,1.251,0.255,1.251-1.246V86.124C218.614,86.124,218.988,85.127,217.742,85.127 M807.622,145.727h-4.791v-15.412h4.791V145.727
		z M777.14,98.328h-2.429v-6.956h2.429V98.328z M728.734,126.495h-4.78l-0.452-6.598c0,0,0-5.01,2.502-5.462
		c2.502-0.456,1.817,4.548,2.274,5.685C728.734,121.261,728.734,126.495,728.734,126.495 M715.31,64.607l-0.229,4.553l-1.821-0.229
		l0.456-4.324H715.31z M691.421,64.607l-2.279,0.686V60.74l2.279-0.685V64.607z M680.5,148.333l-7.734-1.588l0.229-10.242
		c0,0-0.011-5.689,3.41-5.689c4.547,0,4.096,5.461,4.096,5.461V148.333z M644.656,94.108h-3.427v-3.427h3.427V94.108z
		 M644.656,72.368h-2.134v-3.686h2.134V72.368z M550.262,156.151v1.577c-97.066,0.084-246.396,0.172-246.396-0.082v-1.495H550.262z
		 M534.529,23.338c-1.376,0-1.376-1.619-1.376-1.619s-0.125-2.622,1.376-2.622c1.5,0,1.624,2.497,1.624,2.497
		S535.904,23.338,534.529,23.338 M531.035,55.294c0,0.872-0.877,1.5-0.877,1.5h-8.986c-0.872,0-0.872-1.999-0.872-1.999
		s-1.126-9.234-1.126-11.986c0-2.741,0.877-8.612,6.245-8.612c5.367,0,5.616,8.612,5.616,8.612V55.294z M515.43,22.342
		c-1.619,0-1.121-1.75-1.121-1.75s0.374-1.744,1.121-1.744c0.748,0,1.251,1.5,1.251,1.5S517.055,22.342,515.43,22.342
		 M495.959,82.505l-0.748,9.235c0,0,0.125,1.002-1.002,1.5c-1.121,0.498-4.241,1.749-4.241,1.749s-0.747-0.254-0.747-0.752v-9.609
		c0,0,0.125-0.373,0.997-0.752c0.872-0.374,4.246-1.62,4.246-1.62S496.083,81.758,495.959,82.505 M483.355,93.739
		c0,0,0,1.251-1.251,1.376c-1.245,0.124-7.615,0.747-7.864,0.747s-1.37-0.623-1.37-1.375c0-0.748-0.498-6.364-0.498-6.364
		s-0.629-1.246,0.498-1.5c1.121-0.25,7.989-2.243,7.989-2.243s2.367-1.002,2.496,0.623V93.739z M466.001,94.611
		c0,0,0,0.753-0.747,1.251c-0.748,0.499-5.617,0.997-5.617,0.997s-1.126-0.249-1.126-1.744c0-1.5-0.125-7.615-0.125-7.615
		s0-0.748,0.878-1.002c0.872-0.249,4.365-1.495,4.365-1.495s0.877-0.374,1.002,0.623L466.001,94.611z M397.48,36.197
		c0.25,0.498-0.752,2.123-2.248,2.123c-1.5,0-2.746-1.121-2.497-1.75c0.249-0.623,0.623,0,1.371,0h0.752
		c0,0,0.748-0.498,1.122-0.748C396.354,35.574,397.231,35.698,397.48,36.197 M393.732,59.79c0.873,0,2.622,1.371,2.622,3.12
		c0,1.744-0.997,4.49-2.372,4.49c-1.371,0-2.746-1.993-2.497-2.492c0.254-0.503,0.503-1.999-0.249-2.497
		c0,0-0.748-0.752,0.374-1.375C392.736,60.413,392.86,59.79,393.732,59.79 M290.759,157.646c0,0.622-0.499,0.622-0.499,0.622
		h-16.726c-0.498,0-0.748-0.622-0.748-0.622v-1.75c0.125-0.374,0.623-0.249,0.623-0.249h16.726c0.623,0,0.623,0.753,0.623,0.753
		V157.646z M290.509,153.405c0,0-0.125,0.747-0.872,0.747H273.41c0,0-0.752-0.249-0.752-0.996v-3.499c0,0,0.129-0.623,0.752-0.623
		h16.477c0,0,0.748,0.249,0.623,0.997V153.405z M290.509,140.297c0,0.498-0.872,0.498-0.872,0.498l-13.356-9.333l-0.249-0.524
		c0,0,0.182,0,0.503,0.005c2.377,0.047,12.318,0.244,12.978,0.244c0.748,0,0.872,0.996,0.872,0.996S290.509,139.798,290.509,140.297
		 M273.784,131.934l16.103,11.981c0,0,0.374,0.249,0.374,0.498v2.497c0,0-0.249,0.628-0.623,0.628H273.41
		c0,0-0.498-0.379-0.498-1.251v-13.979C272.912,132.308,273.161,131.934,273.784,131.934 M290.136,129.313h-16.601
		c0,0-0.498-0.374-0.498-1.002v-9.733c0,0,0.125-0.747,0.997-0.747h15.729c0,0,0.748,0.498,0.623,0.996v9.484
		C290.385,128.311,290.759,129.313,290.136,129.313 M290.26,109.467c0,0-0.125,5.617-0.125,6.115c0,0.499-0.623,0.872-0.623,0.872
		h-15.729c-0.623,0-0.499-0.373-0.499-0.373v-1.371c0-0.503,0.623-0.877,0.623-0.877s13.73-4.864,15.101-5.243
		C290.385,108.216,290.26,109.467,290.26,109.467 M290.136,104.972c0,0.748-0.623,1.002-0.623,1.002s-14.732,6.239-15.479,6.613
		s-0.872-0.877-0.872-0.877v-9.982c0.125-0.748,0.748-0.748,0.748-0.748h15.23c0.997,0,0.997,0.748,0.997,0.748V104.972z
		 M213.371,156.151l-0.125,1.619l-5.99-0.623l-0.623,0.748h-23.095c-0.057-0.535-0.14-1.324-0.224-2.248h29.683L213.371,156.151z
		 M92.343,47.814l-1.474,15.692c-0.047-0.005-0.099-0.021-0.146-0.021c-3.587-0.327-6.966-0.654-9.012-0.852l1.672-14.067
		C87.676,48.266,90.853,47.965,92.343,47.814 M91.715,43.064c-2.606,0.233-5.196,0.431-7.75,0.576l0.4-3.39
		C87.712,41.149,89.997,42.156,91.715,43.064 M80.616,39.399l-0.436,4.423c-3.151,0.135-6.219,0.213-9.188,0.239l0.322-5.804
		C74.88,38.481,77.958,38.886,80.616,39.399 M70.702,49.216c3.218-0.104,6.239-0.249,8.985-0.41l-1.313,13.362
		c-1.755-0.358-4.989-1.018-8.295-1.713L70.702,49.216z M67.395,38.097c-0.046,1.723-0.099,3.794-0.155,5.98
		c-2.814-0.01-5.502-0.062-8.046-0.135l-0.016-5.705c1.864-0.104,3.862-0.161,6.001-0.161
		C65.936,38.076,66.673,38.081,67.395,38.097 M59.214,49.335c2.678,0.031,5.315,0.016,7.885-0.031
		c-0.094,3.55-0.192,7.205-0.286,10.455c-2.798-0.607-5.279-1.173-6.479-1.516c-0.306-0.083-0.685-0.155-1.09-0.212L59.214,49.335z
		 M56.608,57.812c-2.539-0.093-5.575,0.042-7.849,0.182l-0.529-9.1c2.658,0.187,5.347,0.316,8.046,0.384L56.608,57.812z
		 M56.058,43.828c-3-0.12-5.741-0.265-8.145-0.426L47.7,39.737c2.299-0.509,4.999-0.945,8.15-1.246L56.058,43.828z M45.764,58.212
		c-0.229,0.021-0.358,0.031-0.358,0.031l-6.696-1.812l-0.696-8.674c2.237,0.358,4.568,0.648,6.966,0.872L45.764,58.212z
		 M44.534,43.163c-2.32-0.182-4.122-0.353-5.409-0.483c1.308-0.665,2.902-1.381,5.201-2.071L44.534,43.163z M818.404,62.5
		c0-1.77-6.687-11.015-37.37-11.015c-30.679,0-38.74,5.507-38.74,7.87c0,2.356,3.146,4.916,3.146,4.916l-0.478,66.238l-6.458-5.84
		l-2.31-24.481l-4.958,2.419l-0.229-6.374l-1.821,1.365l-0.452-2.046l-1.365,4.776c0,0-0.456-5.913-0.456-6.826
		c0-0.909-0.909,0.685-0.909,0.685s-0.229-1.594-0.913-1.594c-0.681,0-1.589,5.918-1.589,5.918l-2.05-0.913c0,0,0-6.37,0.228-8.191
		c0.229-1.817-1.137,1.365-1.137,1.365s-0.555-2.222-0.659-3.151c0.504-14.15,1.62-44.834,1.796-45.535
		c0.229-0.909-0.456,0.68-0.456,0.68s-0.452-0.68-0.909-1.817c-0.456-1.137-0.456,4.324-0.908,5.004
		c-0.457,0.685-2.278-3.411-2.278-3.411s0-4.552,0.456-5.917c0.457-1.365-1.137,0.457-1.137,0.457s-0.456-1.822-0.456-3.187
		s-0.452,5.232-0.452,6.141c0,0.914-3.416-4.319-3.416-4.319l0.914-7.283c0,0-0.914,0.685-1.594,0.685
		c-0.686,0-1.137-2.959-1.137-2.959l-0.229,5.689l-2.278-2.959l0.456-8.648l-2.045-0.909l-2.279-2.273c0,0-1.594,2.73-2.273,2.73
		s-1.137-0.686-1.137-0.686l-0.686,8.42l-3.41,1.365l-0.908-5.917l-1.143,3.187l-2.273-0.685l0.457,6.598l-3.867,2.507l0.451-5.689
		l-2.273,2.73c0,0-1.137-0.457-2.045-0.457c-0.914,0,0,6.826-0.686,7.054c-0.68,0.229-2.273,1.365-2.273,1.365l-0.686-5.004
		l-1.365,2.045l-1.137-0.229l0.431,50.866l-0.888,1.008l-2.273-1.365l-1.365,9.328c0,0-3.182,0.456-3.41,1.365
		c-0.229,0.913-0.229-7.963-0.229-8.644c0-0.685-1.822,1.817-2.273,2.502c-0.457,0.681-1.822-1.365-1.822-1.365s0,7.963-0.229,8.644
		c-0.229,0.686-2.502,0-2.502,0l-0.908-6.821c0,0-1.365,1.589-1.822,2.726c-0.452,1.142-1.816-0.681-1.816-0.681l0.223,7.507
		l-2.73-0.908c0,0,0.457-4.776,0-5.918c-0.451-1.137-1.816,2.278-1.816,2.278l-0.54-0.379l0.274-31.447l-18.635-48.406
		l-14.753,51.51l-1.038,26.661h-3.364l-3.104,1.812v4.662l6.209,8.539l0.861,26.531h-8.196l0.077-0.473c0,0,0.504-0.747,0.504-1.246
		c0-0.498,0-1.5-1.126-1.5c-1.122,0-1.371,1.127-1.371,1.874s0.249,0.872,0.249,0.872v0.473h-4.718
		c0.021-0.156,0.021-0.312,0.099-0.473c0.249-0.498,1.998-3.493,1.998-3.493s0.623-0.499,0.498-0.748
		c-0.124-0.249-1.874-1.5-1.874-1.874s0.623-1.121,0.374-1.5c-0.249-0.374-1.495-1.121-1.246-1.37
		c0.25-0.249,1.625-2.746,1.246-2.995c-0.374-0.249-1.868-1.999-1.495-2.622c0.374-0.623,0.374-1.251,0.374-1.251
		s-0.872-0.996-0.747-1.619c0.124-0.623,2.746-1.999,2.746-2.622c0-0.622-1.874-2.372-2.497-2.372s-0.499,0.249-0.997,0.374
		c-0.503,0.125-3,0.877-2.621,1.625c0.373,0.747,1.744,2.247,1.619,2.621c-0.124,0.374-1.749,1.874-1.619,2.372
		c0.124,0.499,1.121,1.495,0.872,2.243c-0.249,0.752-0.125,1.998,0.124,2.372c0.249,0.379,0.872,0.753,0.499,1.5
		c-0.374,0.747-0.872,1.37-1.625,1.37c-0.748,0-1.62-0.872-1.62-1.868c0-1.002,0.623-1.625,0.623-2.372
		c0-0.748-0.623-1.75-1.998-1.75c-1.371,0-2.118-0.498-2.622-0.747c-0.498-0.249-0.747-1.874-0.747-2.995
		c0-1.127,1.874-3.245,1.874-4.246c0-0.997-1.002-2.248-1.75-2.996c-0.747-0.747-2.117-1.744-2.117-3.618s0.747-4.121,3.867-4.121
		c3.119,0,5.741-0.748,5.741-1.869c0-1.126-0.748-1.5-0.498-2.123c0.249-0.623,2.247-2.621,2.247-3.244s-0.124-1.127-0.628-1.5
		c-0.498-0.374-1.37-0.623-1.37-0.623s-0.125-0.499-0.623-0.374c0,0-1.002,0.748-1.376,0.623s-0.374-1.37-0.747-1.37
		c-0.374,0-1.121,0.996-1.5,0.996c-0.374,0-0.499-1.625-1.246-1.625c-0.748,0-1.376,1.625-1.874,1.376s0-1.376-0.374-1.376
		c-0.373,0-5.865-0.124-5.865-0.124s0.373,0.753-0.374,1.002c-0.748,0.249-4.869,0.249-4.371-0.499
		c0.498-0.752,2.497-2.496,2.746-3.249c0.249-0.748,1.376-2.118,1.002-2.367c-0.379-0.254-7.366-5.243-6.494-5.622
		c0.878-0.373,2.622-0.747,2.497-1.245c-0.125-0.499-0.872-0.997-0.498-1.246c0.373-0.249,0.872-0.753,0.747-1.251
		c-0.124-0.499-3.493-2.871-2.746-3.494c0.753-0.623,4.495-2.124,4.495-3.618c0-1.5-2.372-4.745-1.873-5.617
		c0.498-0.877,0.877-1.75,0.877-1.75l3.992-12.235c0,0,1.245-0.498,1.245-0.997c0-0.498-0.373-2.248-0.373-2.248l0.877-0.997
		c0,0,1.495,0.747,2.372,0c0.872-0.748,2.741-5.492,2.741-5.492l0.877-2.372c0,0-2.621,1.625-2.372,1.874
		c0.249,0.25,0.249,0.997,0.249,0.997s-1.874,4.122-2.248,3.998c-0.373-0.125-1.494-0.504-1.245-1.251s0.872-3.992,0.872-3.992
		s0.622-0.503,0.747-1.251l0.125-0.748l-0.25-0.997l-1.494,2.242c0,0-1.002,4.496-1.874,4.62s-1.5-2.372-0.997-3.369
		c0.498-1.002,1.121-2.871,1.121-2.871l0.997-0.125l-0.748-2.497l-2.745,7.485c0,0,0.124,2.751,1.126,2.876
		c0.997,0.125,1.246,0.374,1.246,0.374l0.124,1.744l-0.373,0.753c0,0-0.997,0.623-0.748,0.872c0.249,0.249,0,0.997,0,1.246
		c0,0.254-4.371,12.111-4.371,12.111s-0.373,0.498-0.498,0c-0.124-0.499-0.498-2.996-1.246-3.618c-0.752-0.628-3-1.75-3.249-1.999
		s-2.248-2.497-1.869-2.995c0.374-0.504,1.246-0.125,1.121-1.002c-0.124-0.872-1.5-1.744-1.5-1.744
		c0.628-0.25,1.625-1.376,1.376-1.625s-1.127,0-1.5-0.125c-0.374-0.125-0.125-0.623-0.623-0.748s-1.246,0.872-1.62,0.872
		c-0.373,0-0.249-0.498-0.877-0.498c-0.623,0-2.497,1.37-1.999,1.744c0.504,0.379,1.251,0.379,1.251,0.752
		c0,0.374-0.996,1.122-0.622,1.999c0.373,0.872,1.494,1.121,1.245,1.246c-0.249,0.125-1.619,0.374-1.245,1.121
		c0.373,0.753,1.245,1.75,1.245,1.75s0.374,0.872,0.878,1.121c0.498,0.254,1.246,0.752,0.498,1.002
		c-0.747,0.249-4.62,3.867-4.994,4.116c-0.373,0.25-2.247,1.002-1.873,1.999c0.373,0.997,1.126,0.623,1.5,1.246
		c0.373,0.628,0.623,1.375,1.37,1.375s1.002,0,1.002,0.872c0,0.877,0.996,3.748,0.623,4.371c-0.374,0.623-1.625,0.997-1.376,1.495
		c0.255,0.504,0.628,0.877,0,1.251c-0.623,0.374-2.242,1.246-1.869,1.999c0.374,0.747,0.997,0.996,0.873,1.744
		c-0.125,0.747-0.623,1.5-0.125,1.749s2.123,1.999,1.874,2.621c-0.255,0.623-1.127,2.747-0.255,3.494
		c0.878,0.747,4.745,3.12,4.246,3.618c-0.498,0.503-1.245,2.248-2.496,1.749c-1.246-0.498-3.12-1.5-3.369-1.998
		c-0.249-0.499-2.123-2.995-2.123-2.995l-0.498-3.494l-0.25,9.987l-9.234-0.752l0.125-14.478l-7.117,7.49l-8.985-7.74l3.119,15.854
		c0,0-0.249,0.249-0.747,0.498c-0.504,0.25-9.614-0.373-9.614-0.373s-0.373-0.125-0.373-1.376c0-1.246,3.618-58.913,3.618-58.913
		l3.997-2.622c0,0,0.373-0.623,0.498-1.121c0.124-0.503,2.497-28.836,2.497-28.836s-0.249-0.374-0.872,0.125
		c-0.628,0.499-7.615,7.241-7.615,7.241s-0.623,0.499-0.748,0.997c-0.124,0.499-1.375,3.743-1.375,3.743l-3.494,0.13L524.292,0
		c0,0-6.613,13.232-6.862,13.232s-4.246,0.125-4.246,0.125l0.877-3.245l-9.863-9.614c0,0,1.376,30.082,1.625,30.082
		s5.113,4.745,5.113,4.745l4.869,58.913c0,0,0,0.877-0.498,0.877s-13.979,0.498-13.979,0.498l-0.498-0.374l-0.499-16.352
		l-22.846-24.216L454.27,82.879l2.622,31.458c0,0,1.494,0.996,0.747,1.744c-0.747,0.747-3.618,0.872-3.618,0.872
		s-3.369-0.623-3.369-1.744c0-1.127-0.877-21.471-0.877-21.72s-5.866,7.989-5.866,7.989l-6.737-4.869l0.872,20.598l-2.996,0.249
		l-0.124,2.616h-4.869l-0.249,16.601l-4.994-0.119v-24.465c0,0-3.244,0.623-3.742,0c-0.499-0.628-2.124-1.127-2.871-1.127
		s-1.749-1.619-1.749-1.619l-0.249-1.749c0,0,1.001,0.249,0.872-0.499c-0.125-0.747-0.623-1.5-0.623-1.5l1.002-29.454
		c0,0,0.747-0.877,0.747-1.5c0-0.623,0.249-17.348,0.249-17.348s2.248-0.499,2.248-1.874c0-1.37-0.374-1.999-0.374-1.999
		s-1.126-0.498-1.625-0.498V36.82c0,0,1.251-0.623,1.251-1.62c0-1.002-4.37-1.251-4.37-1.251l-2.248-0.623
		c0,0-0.498,0.498-0.872,0.374s-0.747-0.498-0.747-0.498l0.124-7.112c0,0-0.249-0.503-0.628-0.503c-0.374,0-0.623,0.752-0.623,0.752
		v9.484c0,0-0.623,2.124-2.871,2.124s-3.618-2.248-3.618-2.248l3.369-0.498c0,0,1.988-1.122,1.251-1.002
		c-0.752,0.13-4.62,0.13-4.62,0.13l-0.872-0.628l-3.623-0.125V17.348c0,0-0.125-0.997-0.499-0.623
		c-0.374,0.374-0.748,1.126-0.748,1.126v14.976c0,0,0.25,1.371-0.498,1.5c-0.753,0.125-5.617,0-5.617,0l-0.374-0.628l-4.371,0.25
		l0.125,0.503l-2.497-0.125c0,0-0.125,0.374-0.374,0.374s-1.874,0.249-1.874,0.249s-0.374,0.374-0.125,0.997
		c0.249,0.623,1.625,0.872,1.625,0.872l0.623,17.104c0,0,0.125,1.122-0.498,1.246c-0.623,0.125-1.002,0.249-0.877,1.375
		c0.13,1.121,1.126,1.246,1.126,1.246s1.999,0.125,1.999,0.872c0,0.752,2.622,49.429,2.622,49.429s0.498,1.251-0.628,1.5
		c-1.121,0.249-16.975,0.498-16.975,0.498l-1.744-15.479c0,0-1.375-0.872-1.251-1.495s1.251-1.002,1.251-1.002l-7.864-59.286
		l-7.242,58.664c0,0,1.376,0.622,0.877,1.375c-0.503,0.748-1.251,1.246-1.251,1.246l-0.498,9.863c0,0-0.25,0.622-0.499,0.373
		c-0.254-0.249-14.483-7.241-14.483-7.241s-2.118-1.121-0.499-3.12c1.625-1.998,4.62-5.616,3.997-6.114
		c-0.623-0.499-1.625,0-1.625,0l-37.318,22.84c0,0-0.498-0.124-0.753,0.748c-0.249,0.877,0,23.967,0,23.967h-2.242l0.748-34.951
		l4.241-3.493l37.946-38.943l-49.553,32.952c0,0,0.499-14.976,0.125-14.727c-0.374,0.249-5.367,13.605-5.866,13.979
		s-14.602,1.495-14.602,1.495l-1.5-7.734l-9.982-5.119l8.487-34.577l-30.58,85.75l12.853,19.846l-8.114-2.995l-8.736-14.104
		l-0.499-5.741l17.473-44.933l-49.18-32.704l17.728,34.578l7.49,68.646h-13.854l-2.123,1.625l-29.906,0.259
		c-0.166-1.941-0.285-3.908-0.119-4.163c0.067-0.099,0.363-0.146,0.659-0.191c7.641-0.067,16.528-0.15,16.881-0.15
		c0.628,0,0.249-0.623,0.249-0.623l-15.101-37.946c-0.125-0.872-0.499,0.249-0.499,0.249s-5.16,15.536-8.949,26.702
		c-0.628-0.473-1.142-0.897-1.069-1.184c0.171-0.685,1.022-2.393,1.36-4.952c0.343-2.559-0.337-8.362-0.508-9.219
		c-0.171-0.852-2.726-2.73-2.726-2.73s-3.234-5.467-4.422-6.832c-1.194-1.365-2.383-2.559-2.383-3.072
		c0-0.509,1.188-18.61,1.697-19.462c0.514-0.851,4.085-3.415,4.085-3.924c0-0.514-2.383-6.146-2.892-6.146
		c-0.508,0-3.577-1.365-3.577-1.365l-1.697-2.393l0.509-10.585c0,0,3.571-2.559,3.405-4.609c-0.171-2.051-0.514-2.902-0.343-3.416
		c0.171-0.508,0.343-0.337,0.343-0.851c0-0.514-1.874-3.93-1.874-3.93l-1.703-2.216c0,0-0.68-0.686-1.188-0.856
		c-0.514-0.167-2.217-0.68-2.217-0.68s-0.852-0.514-0.337-1.194c0.509-0.686,1.018-2.564,1.018-2.564l-2.892-2.388l-1.022,1.536
		c0,0-0.337,0.171-0.337,1.023c0,0.856-0.514,0.685-0.171,1.365c0.343,0.685,0.509,0,0.509,0.856v0.851c0,0,0.68,0.343-0.68,0.343
		c-1.36,0-4.765-0.171-4.765-0.171l-5.617-2.902l-0.852-1.194l-0.342,0.509c0,0,0-0.166-0.509-0.337s-1.532-0.514-1.532-0.514
		l-0.171,0.514c0,0,0,0.171,0.851,0.509c0.852,0.343,7.148,5.466,7.148,5.466s-0.68,12.292-0.508,11.436
		c0.171-0.851,3.234-3.924,3.571-3.245c0.342,0.686,0.342,17.245,0.342,17.245l-6.125,5.295l3.234,6.483l-0.171,2.735l1.308,18.241
		c-0.851-0.581-1.9-1.287-3.431-2.31c-7.859-5.243-0.254-11.089-4.708-13.186c-4.454-2.092-6.551-5.237-10.48-8.119
		c-3.93-2.881-3.93-8.118-3.93-8.118s-18.334-7.6-20.432-7.6c-1.781,0-10.382-4.729-16.461-6.463l2.71-23.1l0.259-1.085
		c0,0-1.017-3.473-11.544-5.596l0.073-0.057l-1.459-0.203c-3.976-0.701-9.152-1.209-15.91-1.324l-0.234-0.156
		c0,0-0.005,0.057-0.005,0.151c-0.846-0.011-1.718-0.021-2.616-0.021c-2.191,0-4.205,0.047-6.095,0.12l-3.114,0.171l-0.078-0.005
		c-4.532,0.296-8.108,0.805-10.912,1.417l-0.887,0.13l0.005,0.078c-3.167,0.763-5.279,1.661-6.681,2.502l-0.005-0.088l-0.327,0.296
		c-1.069,0.695-1.671,1.339-2.009,1.827l-0.545,0.499l1.287,15.926l-5.611-1.521L0,53.597v109.417h631.263h184.778V67.218
		C816.042,67.218,818.404,64.27,818.404,62.5"/>
</g>
</svg>
